<?xml version="1.0" encoding="UTF-8"?>
<svg xmlns="http://www.w3.org/2000/svg" xmlns:xlink="http://www.w3.org/1999/xlink" width="542" height="60" viewBox="0 0 542 60">
    <defs>
        <path id="a" d="M.532 59.953H248.23V.52H.532v59.434z"/>
    </defs>
    <g fill="none" fill-rule="evenodd">
        <g transform="translate(293)">
            <mask id="b" fill="#fff">
                <use xlink:href="#a"/>
            </mask>
            <path fill="#181818" d="M153.005 38.708l8.33-24.22 8.134 24.22h-16.464zM63.212 28.084H58.71V4.932h3.738c6.62 0 11.065 4.265 11.065 12.149 0 4.339-3.39 11.003-10.301 11.003zM12.728 38.708l8.328-24.22 8.135 24.22H12.728zm235.5-33.776V2.945H220.22v1.987h4.349v38.24L198.464 2.946h-12.147v1.987h4.334v51.272h-7.52L164.204.52l-19.541 55.685h-7.245V4.932h4.354V2.945h-11.487l-14.48 42.012-15.187-42.012H89.35v1.987h4.343v51.272h-8.622c-2.44 0-4.577-2.182-4.577-5.883v-8.086c0-6.197-2.005-11.385-8.201-13.145 5.39-1.635 9.154-6.797 9.154-12.315 0-7.856-5.853-13.83-17.168-13.83H47.278v1.987h4.337v51.273h-8.762L23.926.518 4.384 56.204H.532v1.987H11.45v-1.987H6.625l5.45-15.547h17.747l5.197 15.547H28.35v1.987h37.075v-1.986H58.71V30.072h4.502c6.573 0 9.88 2.695 9.88 9.09v4.742c0 11.263 7.409 14.287 11.447 14.287h15.871v-1.987h-4.732V10.796l17.815 47.986L130.322 9.37v46.834h-4.345v1.987h25.75v-1.987h-4.824l5.45-15.547H170.1l5.197 15.547h-6.669v1.987h28.37v-1.987h-4.364V7.766L226.553 60V4.932h10.23v51.272h-4.349v1.987h15.795v-1.987h-4.35V4.932h4.35z" mask="url(#b)"/>
        </g>
        <path fill="#181818" d="M243.998 58.087c-13.96 0-14.75-18.326-14.75-27.05 0-8.651 1.04-27.046 14.75-27.046 13.684 0 14.829 18.4 14.829 27.046 0 8.652-.89 27.05-14.829 27.05zM244 2C229.428 2 220 18.201 220 31.037 220 45.062 230.214 60 244 60c13.776 0 24-14.038 24-28.963C268 18.187 257.799 2 244 2zM202 4.977h4.405v51.046H202V58h16v-1.977h-4.405V4.977l4.405.001V3h-16v1.977M130.852 28.233h-4.478V4.993h3.72c6.585 0 11.006 4.282 11.006 12.195 0 4.355-3.373 11.045-10.248 11.045zM152.6 56.929c-2.419 0-4.552-2.258-4.552-5.981v-8.513c0-6.282-1.996-11.426-8.16-13.192 5.362-1.642 9.109-6.824 9.109-12.362C148.996 8.995 143.17 3 131.916 3H115v1.994h4.314v51.465H115v1.994h18.053v-1.994h-6.679V30.227h4.478c6.537 0 9.83 2.728 9.83 9.125v5.307c0 11.306 7.37 14.341 11.388 14.341 2.563 0 3.752-.81 4.93-1.908l-1.161-1.62c-1.512 1.325-2.53 1.457-3.24 1.457zM89 58.087c-13.963 0-14.751-18.326-14.751-27.05 0-8.651 1.04-27.046 14.751-27.046 13.684 0 14.828 18.4 14.828 27.046 0 8.652-.891 27.05-14.828 27.05zM89 2C74.428 2 65 18.201 65 31.037 65 45.062 75.214 60 89 60c13.777 0 24-14.038 24-28.963C113 18.187 102.8 2 89 2zM47 4.977h4.406v51.046H47V58h16v-1.977h-4.405l-.001-51.046L63 4.978V3H47v1.977M29.42 37.01h5.118v10.027c0 5.193-3.933 11.05-10.851 11.05-13.128 0-14.441-16.646-14.441-27.05 0-9.478 1.007-27.046 15.473-27.046 5.493 0 11.57 4.91 12.82 15.77h1.775V2.23h-1.751c-.319 1.888-1.307 2.702-3.254 2.702C32.377 4.933 30.039 2 24.68 2 8.343 2 0 19.363 0 31.038 0 43.334 9.265 60 23.687 60c7.855 0 8.544-4.695 13.296-4.695 1.466 0 2.461 1.379 2.647 3.368h2.015V37.01H46v-1.99H29.42v1.99M184.42 37.01h5.118v10.027c0 5.193-3.934 11.05-10.851 11.05-13.13 0-14.441-16.646-14.441-27.05 0-9.478 1.006-27.046 15.473-27.046 5.492 0 11.57 4.91 12.818 15.77h1.777V2.23h-1.752c-.318 1.888-1.306 2.702-3.254 2.702-1.932 0-4.27-2.933-9.628-2.933C163.342 2 155 19.363 155 31.038 155 43.334 164.264 60 178.686 60c7.855 0 8.545-4.695 13.297-4.695 1.465 0 2.46 1.379 2.646 3.368h2.017l-.002-21.663H201v-1.99h-16.58v1.99"/>
    </g>
</svg>
