<svg xmlns="http://www.w3.org/2000/svg" xmlns:xlink="http://www.w3.org/1999/xlink" width="630" height="60" viewBox="0 0 630 60">
    <defs>
        <path id="a" d="M.196 59.953h248.047V.521H.196v59.432z"/>
        <path id="c" d="M.047.612v55.836h128.991V.612H.047z"/>
    </defs>
    <g fill="none" fill-rule="evenodd">
        <g transform="translate(380.26)">
            <mask id="b" fill="#fff">
                <use xlink:href="#a"/>
            </mask>
            <path fill="#181818" d="M152.884 38.709l8.341-24.22 8.146 24.22h-16.487zm-89.92-10.624h-4.508V4.932h3.745c6.628 0 11.078 4.266 11.078 12.15 0 4.339-3.395 11.003-10.315 11.003zM12.41 38.71l8.34-24.22 8.146 24.22H12.41zM248.243 4.933V2.946h-28.05v1.986h4.354v38.242l-26.14-40.228h-12.165v1.986h4.341v51.274h-7.53L164.098.521 144.53 56.206h-7.255V4.932h4.36V2.946h-11.503l-14.5 42.013-15.21-42.013H89.14v1.986h4.35v51.274h-8.634c-2.445 0-4.585-2.183-4.585-5.884v-8.086c0-6.197-2.007-11.385-8.212-13.145 5.397-1.635 9.167-6.797 9.167-12.315 0-7.856-5.861-13.83-17.192-13.83H47.009v1.986h4.342v51.274h-8.774L23.623.521 4.054 56.206H.196v1.986h10.932v-1.986h-4.83l5.457-15.548h17.773l5.203 15.548h-6.678v1.986H65.18v-1.986h-6.724V30.072h4.508c6.583 0 9.895 2.697 9.895 9.092v4.74c0 11.266 7.419 14.288 11.462 14.288h15.894v-1.986h-4.738v-45.41l17.84 47.986 16.852-49.411v46.835h-4.351v1.986h25.786v-1.986h-4.83l5.458-15.548h17.771l5.204 15.548h-6.678v1.986h28.411v-1.986h-4.371V7.766L226.535 60V4.932h10.246v51.274h-4.356v1.986h15.818v-1.986h-4.356V4.932l4.356.001z" mask="url(#b)"/>
        </g>
        <path fill="#181818" d="M198.683 28.089h-4.509V4.936h3.744c6.629 0 11.08 4.266 11.08 12.15 0 4.339-3.396 11.003-10.315 11.003zm26.13-23.153h4.357V56.21h-8.596c-2.446 0-4.584-2.183-4.584-5.883v-8.087c0-6.196-2.008-11.384-8.213-13.144 5.398-1.635 9.167-6.798 9.167-12.315 0-7.857-5.862-13.83-17.193-13.83h-17.025v1.986h4.342v51.275h-4.342v1.984h18.172v-1.984h-6.724V30.076h4.509c6.58 0 9.893 2.696 9.893 9.09v4.742c0 11.265 7.42 14.287 11.463 14.287h20.593V56.21h-4.356V4.936l4.356.001V2.95h-15.818v1.986zM266.704 57.61c-13.958 0-14.748-18.292-14.748-27 0-8.635 1.04-26.997 14.748-26.997 13.68 0 14.824 18.366 14.824 26.998 0 8.636-.89 27-14.824 27zm0-55.985c-14.568 0-23.993 16.172-23.993 28.986 0 14 10.212 28.91 23.993 28.91 13.773 0 23.995-14.013 23.995-28.91 0-12.827-10.199-28.986-23.995-28.986zM156.587 57.61c-13.958 0-14.748-18.292-14.748-27 0-8.635 1.041-26.997 14.748-26.997 13.679 0 14.824 18.366 14.824 26.998 0 8.636-.891 27-14.824 27zm0-55.985c-14.57 0-23.993 16.172-23.993 28.986 0 14 10.21 28.91 23.993 28.91 13.772 0 23.994-14.013 23.994-28.91 0-12.827-10.198-28.986-23.994-28.986z"/>
        <g transform="translate(0 2.338)">
            <mask id="d" fill="#fff">
                <use xlink:href="#c"/>
            </mask>
            <path fill="#181818" d="M98.702 53.872H88.27V2.6h10.433v51.273zM105.885 2.6h2.752c7.615 0 12.378 3.85 12.378 14.519 0 9.644-3.658 14.211-12.378 14.211h-2.752V2.6zm4.279 30.718c12.637 0 18.874-7.08 18.874-16.2 0-8.779-5.439-16.505-18.874-16.505H81.126l-14.5 42.011L51.416.613H40.135v1.986h4.35v51.273h-4.35v1.986h11.075v-1.986H46.47V8.462L64.31 56.448l16.854-49.41v46.834H76.81v1.986h33.43v-1.986h-4.356V33.317h4.279zM36.684 15.59h-1.91c0-7.89-2.089-12.991-11.18-12.991H11.45v24.376h3.4c5.932 0 8.406-3.026 8.406-8.329h1.91v18.643h-1.91c0-5.235-2.474-8.328-8.406-8.328h-3.4v24.911h8.361c12.923 0 14.962-6.289 14.962-14.519h1.91v16.505H0v-1.986h4.345V2.6H0V.612h36.684V15.59" mask="url(#d)"/>
        </g>
        <path fill="#181818" d="M347.663 9.598c.364-1.363 1.4-1.316 2.962-1.316h3.878c-.336-3.302-4.066-5.37-5.62-5.37l-15.387-.002c-.257 0-.4.192-.518.392-.095.16-1.865 2.732-1.832 6.116l.003.18h16.514M311.33 2.937h-27.668c-.072.368-.106.72-.106 1.063 0 3.699 3.945 5.596 3.945 5.596h29.405l-5.575-6.66M319.464 12.651h-27.668a5.48 5.48 0 0 0-.107 1.063c0 3.7 3.947 5.596 3.947 5.596h29.402l-5.574-6.659M398.525 2.937h-27.677l-5.58 6.66h29.417s3.946-1.898 3.946-5.597c0-.342-.033-.695-.106-1.063M362.723 12.651l-5.588 6.659h29.417s3.946-1.897 3.946-5.596a5.48 5.48 0 0 0-.107-1.063h-27.668M308.052 32.069c-.071.367-.106.72-.106 1.063 0 3.698 3.946 5.595 3.946 5.595h13.775c1.367-2.642 3.786-4.815 7.18-4.815 1.161 0 1.92.4 2.473.69.323.172.579.306.802.306.622 0 .917-.244 1.018-.84l.012-.078h.764v4.737h8.359l1.803-5.129.086-.249s.797 2.338 1.83 5.378h20.303s3.946-1.897 3.946-5.595c0-.343-.034-.696-.106-1.063h-66.085"/>
        <path fill="#181818" d="M332.86 34.77c-2.695 0-3.983 1.859-4.602 3.957h8.63c-.702-2.72-2.441-3.957-4.028-3.957M327.689 43.864c0 1.796.137 3.318.41 4.575h8.01v-2.455h-1.74v-.86h5.822v.86h-1.482v2.455h4.152l2.34-6.659h-17.453c-.058.84-.06 1.578-.06 2.084M362.172 48.44s3.946-1.898 3.946-5.596c0-.342-.035-.695-.106-1.064h-14.978l2.266 6.66h8.872M324.584 41.78h-8.404a5.494 5.494 0 0 0-.107 1.064c0 3.698 3.947 5.595 3.947 5.595h5.404c-.692-1.516-1.063-3.143-1.063-4.575 0-.664.075-1.368.223-2.084M332.51 52.957c1.284 0 2.271-.606 2.885-1.458h-5.999c.772.975 1.807 1.458 3.113 1.458"/>
        <path fill="#181818" d="M356.756 52.48v.858h-7.177v-.857h2.236l-.329-.982h-8.743l-.345.982h1.605v.857h-3.9v-.857h1.338l.345-.982h-3.077v1.84h-.86l-.008-.082c-.06-.646-.378-1.063-.809-1.063-.678 0-1.104.294-1.596.633-.655.45-1.396.962-2.927.962-2.013 0-3.715-.922-5.037-2.29h-3.156a5.484 5.484 0 0 0-.106 1.062c0 3.698 3.946 5.596 3.946 5.596h25.875s3.947-1.898 3.947-5.596c0-.34-.034-.695-.106-1.062h-3.53l.334.982h2.08M346.529 12.634h-15.391l-.27 6.663h17.548l-1.887-6.663M354.6 22.353l-2.65 3.18-2.667-3.18H330.73l-.472 3.163-2.676-3.163h-27.665c-.072.368-.107.72-.107 1.062 0 3.699 3.946 5.596 3.946 5.596h74.68s3.945-1.897 3.945-5.596c0-.342-.034-.694-.106-1.062H354.6M348.234 41.78h-2.124l-1.444 4.196h4.973l-1.405-4.196M350.463 48.44l-.541-1.619h-5.548l-.558 1.618h6.647"/>
    </g>
</svg>
